<svg width="512" height="256" xmlns:xlink="http://www.w3.org/1999/xlink" xmlns="http://www.w3.org/2000/svg"><defs><clipPath id="prefix__b"><use xlink:href="#prefix__a" clip-rule="evenodd"/></clipPath><path id="prefix__a" d="M0 0h512v256H0z"/></defs><g clip-path="url(#prefix__b)"><use xlink:href="#prefix__a" fill="#FFF" fill-opacity="0"/><path d="M194 158l84-123M194 158l199 61" fill="none" stroke="#000" stroke-width="20" stroke-linecap="square"/><path d="M35.5 225.5l429-176" fill="none" stroke="#F80" stroke-width="20" stroke-linecap="square"/><path d="M164 159c0-16.569 13.431-30 30-30 16.569 0 30 13.431 30 30 0 16.568-13.431 30-30 30-16.569 0-30-13.432-30-30zM248.5 35.5c0-16.569 13.431-30 30-30 16.569 0 30 13.431 30 30 0 16.569-13.431 30-30 30-16.569 0-30-13.431-30-30zM363.5 219c0-16.569 13.431-30 30-30 16.569 0 30 13.431 30 30 0 16.569-13.431 30-30 30-16.569 0-30-13.431-30-30z" fill="red" fill-rule="evenodd" stroke="#000" stroke-width="6"/></g></svg>