<svg width="512" height="256" xmlns:xlink="http://www.w3.org/1999/xlink" xmlns="http://www.w3.org/2000/svg"><defs><clipPath id="prefix__b"><use xlink:href="#prefix__a" clip-rule="evenodd"/></clipPath><path id="prefix__a" d="M0 0h512v256H0z"/></defs><g clip-path="url(#prefix__b)"><use xlink:href="#prefix__a" fill="#FFF" fill-opacity="0"/><path d="M156 128.5c0-55.228 44.772-100 100-100s100 44.772 100 100-44.772 100-100 100-100-44.772-100-100z" fill="none" stroke="#000" stroke-width="15"/><path d="M234 128.5c0-12.426 10.074-22.5 22.5-22.5s22.5 10.074 22.5 22.5-10.074 22.5-22.5 22.5-22.5-10.074-22.5-22.5zM311 66.5c0-12.426 10.074-22.5 22.5-22.5S356 54.074 356 66.5 345.926 89 333.5 89 311 78.926 311 66.5z" fill="red" fill-rule="evenodd" stroke="#000" stroke-width="4.5"/></g></svg>