<svg width="512" height="256" xmlns:xlink="http://www.w3.org/1999/xlink" xmlns="http://www.w3.org/2000/svg"><defs><clipPath id="prefix__b"><use xlink:href="#prefix__a" clip-rule="evenodd"/></clipPath><path id="prefix__a" d="M0 0h512v256H0z"/></defs><g clip-path="url(#prefix__b)"><use xlink:href="#prefix__a" fill="#FFF" fill-opacity="0"/><path d="M156 128.5c0-55.228 44.772-100 100-100s100 44.772 100 100-44.772 100-100 100-100-44.772-100-100z" fill="none" stroke="#000" stroke-width="15"/><path d="M300 55c0-12.426 10.074-22.5 22.5-22.5S345 42.574 345 55s-10.074 22.5-22.5 22.5S300 67.426 300 55zM134 137.5c0-12.426 10.074-22.5 22.5-22.5s22.5 10.074 22.5 22.5-10.074 22.5-22.5 22.5-22.5-10.074-22.5-22.5zM305 198.5c0-12.427 10.074-22.5 22.5-22.5s22.5 10.073 22.5 22.5c0 12.426-10.074 22.5-22.5 22.5S305 210.926 305 198.5z" fill="red" fill-rule="evenodd" stroke="#000" stroke-width="4.5"/></g></svg>