<svg xmlns="http://www.w3.org/2000/svg" viewBox="0 0 422.99 44.9"><defs><style>.cls-1,.cls-2{fill:none;stroke-miterlimit:10;stroke-width:9.9px;}.cls-1{stroke:gray;}.cls-2{stroke:#ff2e63;}</style></defs><g id="图层_2" data-name="图层 2"><g id="图层_1-2" data-name="图层 1"><path class="cls-1" d="M316.92,40V32.68c0-5.56,5.49-10.06,12.27-10.06h27"/><line class="cls-1" x1="367.63" y1="18.95" x2="367.63" y2="43.95"/><line class="cls-1" x1="367.42" y1="1.1" x2="367.42" y2="10.81"/><path class="cls-1" d="M383.37,44V17.24c0-6.71,4.51-12.15,10.06-12.15H408c5.55,0,10.06,5.44,10.06,12.15V44"/><path class="cls-1" d="M179.42,1.09V27.81c0,6.71-4.49,12.14-10,12.14H154.91c-5.54,0-10-5.43-10-12.14V1.09"/><line class="cls-1" x1="84.12" y1="39.62" x2="48.12" y2="39.62"/><path class="cls-1" d="M92,39.62h24.4c6.13,0,11.09-4.51,11.09-10.06V15c0-5.55-5-10.06-11.09-10.06H92"/><line class="cls-1" x1="48.12" y1="4.95" x2="84.12" y2="4.95"/><line class="cls-1" x1="48.12" y1="22.28" x2="84.12" y2="22.28"/><path class="cls-1" d="M0,39.62H24.4c6.12,0,11.09-4.51,11.09-10.06V15C35.49,9.46,30.52,5,24.4,5H0"/><path class="cls-2" d="M351.25,22.28v7.28c0,5.55-5.5,10.06-12.28,10.06H312"/><path class="cls-2" d="M231.91,39.62h-24.4c-6.13,0-11.09-4.51-11.09-10.06V15c0-5.55,5-10.06,11.09-10.06h24.4"/><path class="cls-2" d="M240.57,39.62h13.62c3.42,0,6.19-4.51,6.19-10.06V15c0-5.55-2.77-10.06-6.19-10.06H240.57"/><path class="cls-2" d="M302.88,39.62H289.27c-3.42,0-6.19-4.51-6.19-10.06V15c0-5.55,2.77-10.06,6.19-10.06h13.61"/><line class="cls-2" x1="283.08" y1="22.28" x2="260.79" y2="22.28"/><path class="cls-2" d="M312,5h27c6.78,0,12.28,4.51,12.28,10.06v7.27"/></g></g></svg>