<?xml version="1.0" encoding="utf-8"?>
<svg width="512px" height="256px" viewBox="0 0 512 256" version="1.1" xmlns:xlink="http://www.w3.org/1999/xlink" xmlns="http://www.w3.org/2000/svg">
  <defs>
    <rect width="512" height="256" id="artboard_1" />
    <clipPath id="clip_1">
      <use xlink:href="#artboard_1" clip-rule="evenodd" />
    </clipPath>
  </defs>
  <g id="extensionLine" clip-path="url(#clip_1)">
    <use xlink:href="#artboard_1" stroke="none" fill="#FFFFFF" fill-opacity="0" />
    <path d="M0 82L173 0" transform="translate(83 128)" id="Line-2" fill="none" fill-rule="evenodd" stroke="#888888" stroke-width="20" stroke-linecap="square" stroke-dasharray="39 39" />
    <path d="M0 95.5L204.5 0" transform="translate(256 32.5)" id="Line-3" fill="none" fill-rule="evenodd" stroke="#000000" stroke-width="20" stroke-linecap="square" />
    <path d="M0 95.5L204.5 0" transform="translate(256 32.5)" id="Line-3" fill="none" fill-rule="evenodd" stroke="#000000" stroke-width="20" stroke-linecap="square" />
    <path d="M0 30C0 13.4315 13.4315 0 30 0C46.5685 0 60 13.4315 60 30C60 46.5685 46.5685 60 30 60C13.4315 60 0 46.5685 0 30Z" transform="translate(226 98)" id="Ellipse" fill="#FF0000" fill-rule="evenodd" stroke="#000000" stroke-width="6" />
    <path d="M0 30C0 13.4315 13.4315 0 30 0C46.5685 0 60 13.4315 60 30C60 46.5685 46.5685 60 30 60C13.4315 60 0 46.5685 0 30Z" transform="translate(53 180)" id="Ellipse-3" fill="#FF0000" fill-rule="evenodd" stroke="#000000" stroke-width="6" />
  </g>
</svg>