<svg width="512" height="256" xmlns:xlink="http://www.w3.org/1999/xlink" xmlns="http://www.w3.org/2000/svg"><defs><clipPath id="prefix__b"><use xlink:href="#prefix__a" clip-rule="evenodd"/></clipPath><path id="prefix__a" d="M0 0h512v256H0z"/></defs><g clip-path="url(#prefix__b)"><use xlink:href="#prefix__a" fill="#FFF" fill-opacity="0"/><path d="M83 210l173-82" fill="none" stroke="#888" stroke-width="20" stroke-linecap="square" stroke-dasharray="39 39"/><path d="M256 128l204.5-95.5M256 128l204.5-95.5" fill="none" stroke="#000" stroke-width="20" stroke-linecap="square"/><path d="M226 128c0-16.569 13.431-30 30-30 16.569 0 30 13.431 30 30 0 16.569-13.431 30-30 30-16.569 0-30-13.431-30-30zM53 210c0-16.569 13.431-30 30-30 16.569 0 30 13.431 30 30 0 16.569-13.431 30-30 30-16.569 0-30-13.431-30-30z" fill="red" fill-rule="evenodd" stroke="#000" stroke-width="6"/></g></svg>