<svg width="512" height="256" xmlns:xlink="http://www.w3.org/1999/xlink" xmlns="http://www.w3.org/2000/svg"><defs><clipPath id="prefix__b"><use xlink:href="#prefix__a" clip-rule="evenodd"/></clipPath><path id="prefix__a" d="M0 0h512v256H0z"/></defs><g clip-path="url(#prefix__b)"><use xlink:href="#prefix__a" fill="#FFF" fill-opacity="0"/><path d="M362 60.5c0-16.568 13.431-30 30-30 16.569 0 30 13.432 30 30 0 16.57-13.431 30-30 30-16.569 0-30-13.43-30-30z" fill="red" fill-rule="evenodd" stroke="#000" stroke-width="6"/><path d="M226.5 128c0-16.568 13.431-30 30-30 16.569 0 30 13.432 30 30 0 16.569-13.431 30-30 30-16.569 0-30-13.431-30-30z" fill="#F80" fill-rule="evenodd" stroke="#000" stroke-width="6"/><path d="M88 199c0-16.569 13.431-30 30-30 16.569 0 30 13.431 30 30 0 16.569-13.431 30-30 30-16.569 0-30-13.431-30-30z" fill="red" fill-rule="evenodd" stroke="#000" stroke-width="6"/></g></svg>