<svg width="512" height="256" xmlns:xlink="http://www.w3.org/1999/xlink" xmlns="http://www.w3.org/2000/svg"><defs><clipPath id="prefix__c"><use xlink:href="#prefix__a" clip-rule="evenodd"/></clipPath><clipPath id="prefix__d"><use xlink:href="#prefix__b"/></clipPath><path d="M60.38 158.306c-.465 0-.93-.089-1.381-.251a3.864 3.864 0 01-2.149-2.017l-22.445-50.854-27.93 25.721c-1.111 1.031-2.75 1.296-4.161.707A3.773 3.773 0 010 128.152V3.768C0 2.267.901.912 2.314.308a3.925 3.925 0 014.161.707L98.782 85.44a3.726 3.726 0 011.006 3.99c-.495 1.414-1.788 2.4-3.305 2.533L57.316 95.26l23.482 50.177a3.7 3.7 0 01.105 2.886 3.753 3.753 0 01-1.998 2.106l-16.932 7.538a3.96 3.96 0 01-1.592.339z" transform="translate(206 49.094)" id="prefix__b"/><path id="prefix__a" d="M0 0h512v256H0z"/></defs><g clip-path="url(#prefix__c)"><use xlink:href="#prefix__a" fill="#FFF" fill-opacity="0"/><use fill="#FFF" fill-opacity="0" xlink:href="#prefix__b" fill-rule="evenodd"/><g clip-path="url(#prefix__d)"><use xlink:href="#prefix__b" fill="none" stroke="#000" stroke-width="14" stroke-linecap="square"/></g></g></svg>