<?xml version="1.0" encoding="utf-8"?>
<svg width="128px" height="128px" viewBox="0 0 128 128" version="1.1" xmlns:xlink="http://www.w3.org/1999/xlink" xmlns="http://www.w3.org/2000/svg">
  <defs>
    <filter id="filter_1">
      <feColorMatrix in="SourceGraphic" type="matrix" values="0 0 0 0 1 0 0 0 0 0 0 0 0 0 0 0 0 0 1 0" />
    </filter>
    <rect width="128" height="128" id="artboard_1" />
    <clipPath id="clip_1">
      <use xlink:href="#artboard_1" clip-rule="evenodd" />
    </clipPath>
  </defs>
  <g id="icon" clip-path="url(#clip_1)">
    <use xlink:href="#artboard_1" stroke="none" fill="#FFFFFF" />
    <path d="M0 0L128 0L128 128L0 128L0 0Z" id="Rectangle" fill="#D3D3D3" fill-opacity="0" fill-rule="evenodd" stroke="#FF0000" stroke-width="15" />
    <g id="Group" transform="translate(52 18)" filter="url(#filter_1)">
      <path d="M12 0L24 14L0 14L12 0Z" id="Triangle" fill="#D3D3D3" fill-rule="evenodd" stroke="none" />
      <path d="M0 0L13.3333 0L13.3333 18L0 18L0 0Z" transform="translate(5.3333435 14)" id="Rectangle-2" fill="#D3D3D3" fill-rule="evenodd" stroke="none" />
    </g>
    <g id="Group-2" transform="matrix(-3.8027724E-06 1 -1 -3.8027724E-06 110.00015 52.99997)" filter="url(#filter_1)">
      <path d="M12 0L24 14L0 14L12 0Z" id="Triangle" fill="#D3D3D3" fill-rule="evenodd" stroke="none" />
      <path d="M0 0L13.3333 0L13.3333 18L0 18L0 0Z" transform="translate(5.3326416 14.0000305)" id="Rectangle-2" fill="#D3D3D3" fill-rule="evenodd" stroke="none" />
    </g>
    <g id="Group-2" transform="matrix(-1 -2.5351817E-06 2.5351817E-06 -1 75.99994 110.99994)" filter="url(#filter_1)">
      <path d="M12 0L24 14L0 14L12 0Z" id="Triangle" fill="#D3D3D3" fill-rule="evenodd" stroke="none" />
      <path d="M0 0L13.3333 0L13.3333 18L0 18L0 0Z" transform="translate(5.3335876 13.999908)" id="Rectangle-2" fill="#D3D3D3" fill-rule="evenodd" stroke="none" />
    </g>
    <g id="Group" transform="matrix(1.2675908E-06 -1 1 1.2675908E-06 18 76)" filter="url(#filter_1)">
      <path d="M12 0L24 14L0 14L12 0Z" id="Triangle" fill="#D3D3D3" fill-rule="evenodd" stroke="none" />
      <path d="M0 0L13.3333 0L13.3333 18L0 18L0 0Z" transform="translate(5.3320923 14)" id="Rectangle-2" fill="#D3D3D3" fill-rule="evenodd" stroke="none" />
    </g>
  </g>
</svg>