<svg width="512" height="256" xmlns:xlink="http://www.w3.org/1999/xlink" xmlns="http://www.w3.org/2000/svg"><defs><clipPath id="prefix__b"><use xlink:href="#prefix__a" clip-rule="evenodd"/></clipPath><path id="prefix__a" d="M0 0h512v256H0z"/></defs><g clip-path="url(#prefix__b)"><use xlink:href="#prefix__a" fill="#FFF" fill-opacity="0"/><path d="M241.023 85.374l37.82 13.023-13.022 37.82L228 123.195l13.023-37.821z" fill="none" stroke="red" stroke-width="13"/><path d="M188.473 86.218l-12.049 38.142M348.018 140.227l-12.049 38.142" fill="none" stroke="red" stroke-width="13" stroke-linecap="square"/><path d="M90 74l350 119" fill="none" stroke="#000" stroke-width="20" stroke-linecap="square"/><path d="M229.5 235.5l73-217" fill="none" stroke="#F80" stroke-width="20" stroke-linecap="square"/><path d="M410.5 193c0-16.569 13.431-30 30-30 16.569 0 30 13.431 30 30 0 16.569-13.431 30-30 30-16.569 0-30-13.431-30-30zM60 75c0-16.569 13.431-30 30-30 16.569 0 30 13.431 30 30 0 16.568-13.431 30-30 30-16.569 0-30-13.432-30-30z" fill="red" fill-rule="evenodd" stroke="#000" stroke-width="6"/></g></svg>