<?xml version="1.0" encoding="utf-8"?>
<svg width="512px" height="256px" viewBox="0 0 512 256" version="1.1" xmlns:xlink="http://www.w3.org/1999/xlink" xmlns="http://www.w3.org/2000/svg">
  <defs>
    <rect width="512" height="256" id="artboard_1" />
    <clipPath id="clip_1">
      <use xlink:href="#artboard_1" clip-rule="evenodd" />
    </clipPath>
  </defs>
  <g id="perpendicularBisector" clip-path="url(#clip_1)">
    <use xlink:href="#artboard_1" stroke="none" fill="#FFFFFF" fill-opacity="0" />
    <path d="M0 0L40 0L40 40L0 40L0 0Z" transform="matrix(0.9455186 0.3255679 -0.3255679 0.9455186 241.02272 85.37402)" id="Rectangle" fill="#D3D3D3" fill-opacity="0" fill-rule="evenodd" stroke="#FF0000" stroke-width="13" />
    <path d="M0 0L1.02531 39.9869" transform="matrix(0.9455187 0.32556793 -0.32556793 0.9455187 188.47302 86.21753)" id="Line-7" fill="none" fill-rule="evenodd" stroke="#FF0000" stroke-width="13" stroke-linecap="square" />
    <path d="M0 0L1.02531 39.9869" transform="matrix(0.9455187 0.32556793 -0.32556793 0.9455187 348.01843 140.2268)" id="Line-8" fill="none" fill-rule="evenodd" stroke="#FF0000" stroke-width="13" stroke-linecap="square" />
    <path d="M0 0L350 119" transform="translate(90 74)" id="Line" fill="none" fill-rule="evenodd" stroke="#000000" stroke-width="20" stroke-linecap="square" />
    <path d="M0 217L73 0" transform="translate(229.5 18.5)" id="Line-6" fill="none" fill-rule="evenodd" stroke="#FF8800" stroke-width="20" stroke-linecap="square" />
    <path d="M0 30C0 13.4315 13.4315 0 30 0C46.5685 0 60 13.4315 60 30C60 46.5685 46.5685 60 30 60C13.4315 60 0 46.5685 0 30Z" transform="translate(410.5 163)" id="Ellipse-3" fill="#FF0000" fill-rule="evenodd" stroke="#000000" stroke-width="6" />
    <path d="M0 30C0 13.4315 13.4315 0 30 0C46.5685 0 60 13.4315 60 30C60 46.5685 46.5685 60 30 60C13.4315 60 0 46.5685 0 30Z" transform="translate(60 44.999756)" id="Ellipse-4" fill="#FF0000" fill-rule="evenodd" stroke="#000000" stroke-width="6" />
  </g>
</svg>