<?xml version="1.0" encoding="utf-8"?>
<svg width="512px" height="256px" viewBox="0 0 512 256" version="1.1" xmlns:xlink="http://www.w3.org/1999/xlink" xmlns="http://www.w3.org/2000/svg">
  <defs>
    <rect width="512" height="256" id="artboard_1" />
    <clipPath id="clip_1">
      <use xlink:href="#artboard_1" clip-rule="evenodd" />
    </clipPath>
  </defs>
  <g id="perpendicular" clip-path="url(#clip_1)">
    <use xlink:href="#artboard_1" stroke="none" fill="#FFFFFF" fill-opacity="0" />
    <path d="M0 0L40 0L40 40L0 40L0 0Z" transform="matrix(0.90630776 0.42261827 -0.42261827 0.90630776 278.0425 105.21728)" id="Rectangle" fill="#D3D3D3" fill-opacity="0" fill-rule="evenodd" stroke="#FF0000" stroke-width="13" />
    <path d="M0 0L339 162" transform="translate(87.5 58.5)" id="Line" fill="none" fill-rule="evenodd" stroke="#000000" stroke-width="20" stroke-linecap="square" />
    <path d="M105 0L0 223" transform="translate(262.5 13.5)" id="Line-2" fill="none" fill-rule="evenodd" stroke="#FF8800" stroke-width="20" stroke-linecap="square" />
    <path d="M0 30C0 13.4315 13.4315 0 30 0C46.5685 0 60 13.4315 60 30C60 46.5685 46.5685 60 30 60C13.4315 60 0 46.5685 0 30Z" transform="translate(321 19)" id="Ellipse" fill="#FF0000" fill-rule="evenodd" stroke="#000000" stroke-width="6" />
  </g>
</svg>