<svg width="512" height="256" xmlns:xlink="http://www.w3.org/1999/xlink" xmlns="http://www.w3.org/2000/svg"><defs><clipPath id="prefix__b"><use xlink:href="#prefix__a" clip-rule="evenodd"/></clipPath><path id="prefix__a" d="M0 0h512v256H0z"/></defs><g clip-path="url(#prefix__b)"><use xlink:href="#prefix__a" fill="#FFF" fill-opacity="0"/><path d="M196 148c0-22.091 17.909-40 40-40s40 17.909 40 40-17.909 40-40 40-40-17.909-40-40z" fill="red" fill-rule="evenodd" stroke="#000" stroke-width="8"/><path d="M325.258 103.99v-2.87q2.93-.587 4.365-1.29 1.436-.703 2.139-1.963.703-1.26.703-3.369 0-1.992-.469-4.307-.469-2.314-1.348-5.185l-2.167-7.559h-27.305l-1.992 5.742q-1.524 4.336-1.993 6.563-.468 2.227-.468 4.043 0 3.516 1.787 5.156 1.787 1.64 5.478 2.168v2.871h-25.02v-2.87q3.282-.528 5.714-3.81 2.431-3.28 4.716-9.374l24.434-64.864h9.258l19.922 65.332q1.406 4.57 2.49 6.973 1.084 2.402 2.607 3.75 1.524 1.348 4.16 1.992v2.871h-27.011zm-22.5-31.64h24.492l-11.133-37.793-13.36 37.793z"/></g></svg>