<?xml version="1.0" encoding="utf-8"?>
<svg width="512px" height="256px" viewBox="0 0 512 256" version="1.1" xmlns:xlink="http://www.w3.org/1999/xlink" xmlns="http://www.w3.org/2000/svg">
  <defs>
    <rect width="512" height="256" id="artboard_1" />
    <clipPath id="clip_1">
      <use xlink:href="#artboard_1" clip-rule="evenodd" />
    </clipPath>
  </defs>
  <g id="point" clip-path="url(#clip_1)">
    <use xlink:href="#artboard_1" stroke="none" fill="#FFFFFF" fill-opacity="0" />
    <path d="M0 40C0 17.9086 17.9086 0 40 0C62.0914 0 80 17.9086 80 40C80 62.0914 62.0914 80 40 80C17.9086 80 0 62.0914 0 40Z" transform="translate(196 108)" id="Ellipse" fill="#FF0000" fill-rule="evenodd" stroke="#000000" stroke-width="8" />
    <g id="A" transform="translate(276 14)">
      <path d="M49.2578 89.9902L49.2578 87.1191Q52.1875 86.5332 53.623 85.8301Q55.0586 85.127 55.7617 83.8672Q56.4648 82.6074 56.4648 80.498Q56.4648 78.5059 55.9961 76.1914Q55.5273 73.877 54.6484 71.0059L52.4805 63.4473L25.1758 63.4473L23.1836 69.1895Q21.6602 73.5254 21.1914 75.752Q20.7227 77.9785 20.7227 79.7949Q20.7227 83.3105 22.5098 84.9512Q24.2969 86.5918 27.9883 87.1191L27.9883 89.9902L2.96875 89.9902L2.96875 87.1191Q6.25 86.5918 8.68164 83.3105Q11.1133 80.0293 13.3984 73.9355L37.832 9.07227L47.0898 9.07227L67.0117 74.4043Q68.418 78.9746 69.502 81.377Q70.5859 83.7793 72.1094 85.127Q73.6328 86.4746 76.2695 87.1191L76.2695 89.9902L49.2578 89.9902ZM26.7578 58.3496L51.25 58.3496L40.1172 20.5566L26.7578 58.3496Z" />
    </g>
  </g>
</svg>