<?xml version="1.0" encoding="utf-8"?>
<svg width="512px" height="256px" viewBox="0 0 512 256" version="1.1" xmlns:xlink="http://www.w3.org/1999/xlink" xmlns="http://www.w3.org/2000/svg">
  <defs>
    <rect width="512" height="256" id="artboard_1" />
    <clipPath id="clip_1">
      <use xlink:href="#artboard_1" clip-rule="evenodd" />
    </clipPath>
  </defs>
  <g id="tangent" clip-path="url(#clip_1)">
    <use xlink:href="#artboard_1" stroke="none" fill="#FFFFFF" fill-opacity="0" />
    <path d="M0 0L395 67" transform="translate(73.5 155.5)" id="Line-5" fill="none" fill-rule="evenodd" stroke="#FF8800" stroke-width="15" stroke-linecap="square" />
    <path d="M0 204L280 0" transform="translate(86.5 18.5)" id="Line-6" fill="none" fill-rule="evenodd" stroke="#FF8800" stroke-width="15" stroke-linecap="square" />
    <path d="M0 22.5C0 10.0736 10.0736 0 22.5 0C34.9264 0 45 10.0736 45 22.5C45 34.9264 34.9264 45 22.5 45C10.0736 45 0 34.9264 0 22.5Z" transform="translate(138 148.00024)" id="Ellipse-6" fill="#FF0000" fill-rule="evenodd" stroke="#000000" stroke-width="4.5" />
    <path d="M0 76C0 34.0264 34.0264 0 76 0C117.974 0 152 34.0264 152 76C152 117.974 117.974 152 76 152C34.0264 152 0 117.974 0 76Z" transform="translate(273.2 49)" id="Ellipse-5" fill="#D3D3D3" fill-opacity="0" fill-rule="evenodd" stroke="#000000" stroke-width="15" />
  </g>
</svg>