<svg viewBox="0 0 1000 1000" xmlns:xlink="http://www.w3.org/1999/xlink" xmlns="http://www.w3.org/2000/svg"><defs><clipPath id="prefix__b"><use xlink:href="#prefix__a" clip-rule="evenodd"/></clipPath><path id="prefix__a" d="M0 0h1000v1000H0z"/></defs><g clip-path="url(#prefix__b)"><use xlink:href="#prefix__a" fill="#FFF" fill-opacity="0"/><path d="M358 278l-58 422M813 624l-513 76" fill="none" stroke="#11999E" stroke-width="80" stroke-linecap="square"/><path d="M150 850l700-700" fill="none" stroke="#30E3CA" stroke-width="80" stroke-linecap="square"/><path d="M200 700c0-55.228 44.772-100 100-100s100 44.772 100 100-44.772 100-100 100-100-44.772-100-100zM258.001 278c0-55.228 44.771-100 100-100 55.228 0 100 44.772 100 100s-44.772 100-100 100c-55.229 0-100-44.772-100-100zM713.5 624c0-55.228 44.772-100 100-100s100 44.772 100 100-44.772 100-100 100-100-44.772-100-100z" fill="#11999E" fill-rule="evenodd" stroke="#000" stroke-width="20"/></g></svg>