<svg viewBox="0 0 1000 1000" xmlns:xlink="http://www.w3.org/1999/xlink" xmlns="http://www.w3.org/2000/svg"><defs><clipPath id="prefix__c"><use xlink:href="#prefix__a" clip-rule="evenodd"/></clipPath><clipPath id="prefix__d"><use xlink:href="#prefix__b"/></clipPath><path d="M235.717 618c-1.819 0-3.637-.345-5.396-.977a15.093 15.093 0 01-8.387-7.875L134.31 410.619 25.278 511.033c-4.34 4.024-10.733 5.058-16.246 2.759C3.578 511.493 0 506.148 0 500.285V14.711C0 8.848 3.519 3.561 9.032 1.204c5.455-2.3 11.848-1.265 16.246 2.759L385.627 333.54c4.341 3.966 5.866 10.117 3.93 15.577-1.935 5.518-6.979 9.369-12.903 9.886l-152.902 12.875 91.671 195.885a14.443 14.443 0 01.41 11.266 14.643 14.643 0 01-7.8 8.219l-66.099 29.429c-1.995.862-4.047 1.322-6.217 1.322z" transform="translate(305 191)" id="prefix__b"/><path id="prefix__a" d="M0 0h1000v1000H0z"/></defs><g clip-path="url(#prefix__c)"><use xlink:href="#prefix__a" fill="#FFF" fill-opacity="0"/><use fill="#FFF" fill-opacity="0" xlink:href="#prefix__b" fill-rule="evenodd"/><g clip-path="url(#prefix__d)"><use xlink:href="#prefix__b" fill="none" stroke="#000" stroke-width="60" stroke-linecap="square"/></g></g></svg>