<svg viewBox="0 0 1000 1000" xmlns:xlink="http://www.w3.org/1999/xlink" xmlns="http://www.w3.org/2000/svg"><defs><clipPath id="prefix__b"><use xlink:href="#prefix__a" clip-rule="evenodd"/></clipPath><path id="prefix__a" d="M0 0h1000v1000H0z"/></defs><g clip-path="url(#prefix__b)"><use xlink:href="#prefix__a" fill="#FFF" fill-opacity="0"/><path d="M250.001 250L749.999 750" fill="none" stroke="#BBB" stroke-width="80" stroke-linecap="square" stroke-dasharray="141 141"/><path d="M750 650c55.228 0 100 44.773 100 100.001s-44.772 100-100 100c-55.229 0-100-44.773-100-100 0-55.23 44.772-100 100-100zM250.001 150c55.228 0 100 44.771 100 100 0 55.228-44.772 100-100 100-55.229 0-100-44.773-100-100 0-55.23 44.772-100 100-100z" fill="#11999E" fill-rule="evenodd" stroke="#000" stroke-width="20"/><path d="M850.001 150.001L149.999 849.999" fill="none" stroke="#30E3CA" stroke-width="80" stroke-linecap="square"/></g></svg>