<svg viewBox="0 0 1000 1000" xmlns:xlink="http://www.w3.org/1999/xlink" xmlns="http://www.w3.org/2000/svg"><defs><clipPath id="prefix__b"><use xlink:href="#prefix__a" clip-rule="evenodd"/></clipPath><path id="prefix__a" d="M0 0h1000v1000H0z"/></defs><g clip-path="url(#prefix__b)"><use xlink:href="#prefix__a" fill="#FFF" fill-opacity="0"/><path d="M425 500c0-41.421 33.579-75 75-75s75 33.579 75 75-33.579 75-75 75-75-33.579-75-75z" fill="#11999E" fill-rule="evenodd" stroke="#000" stroke-width="15"/><path d="M196 500c0-167.895 136.105-304 304-304s304 136.105 304 304-136.105 304-304 304-304-136.105-304-304z" fill="none" stroke="#30E3CA" stroke-width="60"/><path d="M729 500c0-41.421 33.579-75 75-75s75 33.579 75 75-33.579 75-75 75-75-33.579-75-75z" fill="#11999E" fill-rule="evenodd" stroke="#000" stroke-width="15"/></g></svg>