<svg viewBox="0 0 1000 1000" xmlns:xlink="http://www.w3.org/1999/xlink" xmlns="http://www.w3.org/2000/svg"><defs><clipPath id="prefix__b"><use xlink:href="#prefix__a" clip-rule="evenodd"/></clipPath><path id="prefix__a" d="M0 0h1000v1000H0z"/></defs><g clip-path="url(#prefix__b)"><use xlink:href="#prefix__a" fill="#FFF" fill-opacity="0"/><path d="M350 500c0-82.843 67.157-150 150-150s150 67.157 150 150-67.157 150-150 150-150-67.157-150-150z" fill="#30E3CA" fill-rule="evenodd" stroke="#000" stroke-width="30"/><path d="M786.473 878.302v-9.139q9.326-1.866 13.896-4.104 4.569-2.238 6.808-6.248 2.238-4.011 2.238-10.726 0-6.341-1.492-13.709-1.492-7.368-4.29-16.507l-6.902-24.062h-86.92l-6.341 18.279q-4.85 13.803-6.342 20.891-1.492 7.088-1.492 12.87 0 11.192 5.689 16.414 5.689 5.223 17.44 6.902v9.139h-79.646v-9.139q10.445-1.679 18.186-12.124 7.74-10.446 15.015-29.844l77.781-206.482h29.47l63.418 207.974q4.477 14.549 7.928 22.196 3.45 7.648 8.3 11.938 4.849 4.29 13.243 6.342v9.139h-85.987zM714.848 777.58h77.966l-35.439-120.308-42.527 120.308z"/></g></svg>