<svg xmlns="http://www.w3.org/2000/svg" viewBox="0 0 193.87 51.63"><defs><style>.prefix__cls-1,.prefix__cls-2{stroke:#fff;stroke-miterlimit:10}.prefix__cls-1{stroke-width:.78px}.prefix__cls-2{stroke-width:.72px}</style></defs><g id="prefix__图层_2" data-name="图层 2"><g id="prefix__图层_1-2" data-name="图层 1"><path class="prefix__cls-1" d="M3.35 30.67c0-12.81 8-20.46 18.48-20.46a16 16 0 0111.77 4.94l-3.55 4.27A10.71 10.71 0 0022 16c-7.13 0-11.89 5.52-11.89 14.51S14.36 45.2 22.33 45.2a9.1 9.1 0 005.86-1.84v-8.83h-7.53V29.1h13.5v17.17c-2.6 2.64-7.1 4.64-12.46 4.64-10.55 0-18.35-7.29-18.35-20.24z" transform="translate(-2.96 -1.76)"/><path class="prefix__cls-1" d="M30.17 37.57c0-8.19 5.85-13.25 11.92-13.25 7.19 0 10.75 5.23 10.75 12.13a16.43 16.43 0 01-.31 3.3H37.42c.67 3.67 3.18 5.35 6.55 5.35a10.46 10.46 0 005.46-1.66L51.91 48a16.46 16.46 0 01-9 2.84c-7.16-.04-12.74-4.91-12.74-13.27zm16.28-2.77c0-2.77-1.21-4.77-4.2-4.77-2.36 0-4.4 1.58-4.91 4.77z" transform="translate(-2.96 -1.76)"/><path class="prefix__cls-1" d="M48.4 37.57c0-8.4 5.91-13.25 12.3-13.25S73 29.17 73 37.57 67.09 50.8 60.7 50.8 48.4 46 48.4 37.57zm16.93 0c0-4.37-1.54-7.21-4.63-7.21s-4.64 2.84-4.64 7.21 1.54 7.19 4.64 7.19 4.63-2.82 4.63-7.19z" transform="translate(-2.96 -1.76)"/><path class="prefix__cls-1" d="M70 24.94h6.1l.54 3.23h.19c2.07-2.08 4.33-3.85 7.65-3.85 3.55 0 5.69 1.54 7 4.26 2.22-2.32 4.59-4.26 7.93-4.26 5.46 0 7.9 3.88 7.9 10.19v15.68h-7.54V35.47c0-3.63-1-4.77-3.12-4.77-1.27 0-2.71.79-4.3 2.45v17h-7.48V35.47c0-3.63-1-4.77-3.12-4.77-1.25 0-2.71.79-4.3 2.45v17H70z" transform="translate(-2.96 -1.76)"/><path class="prefix__cls-1" d="M104.28 43.19c0-5.33 4.23-8.21 14.22-9.26-.15-2.21-1.25-3.65-4-3.65-2.12 0-4.23.89-6.68 2.28l-2.66-4.91A20.6 20.6 0 01116 24.32c6.46 0 10 3.69 10 11.43v14.44h-6.1l-.54-2.59h-.19a11.05 11.05 0 01-7.34 3.2 7.27 7.27 0 01-7.55-7.61zm14.22-.34v-4.41c-5.32.72-7 2.24-7 4.15 0 1.63 1.11 2.42 2.89 2.42s2.78-.84 4.11-2.16z" transform="translate(-2.96 -1.76)"/><path class="prefix__cls-1" d="M125.13 41V30.81h-3.45v-5.59l3.87-.28.88-6.71h6.19v6.71h6v5.87h-6v10.11c0 2.86 1.3 4 3.26 4a7.53 7.53 0 002.41-.48l1.18 5.43a17.75 17.75 0 01-5.62.92c-6.24.01-8.72-3.93-8.72-9.79z" transform="translate(-2.96 -1.76)"/><path class="prefix__cls-1" d="M135.47 24.94h6.1l.54 4.41h.19c1.84-3.37 4.6-5 7.17-5a7.08 7.08 0 013 .51l-1.25 6.46a10.35 10.35 0 00-2.72-.41c-1.91 0-4.22 1.23-5.57 4.67v14.61h-7.48z" transform="translate(-2.96 -1.76)"/><path class="prefix__cls-1" d="M147 17.33c0-2.29 1.82-3.91 4.33-3.91s4.33 1.62 4.33 3.91-1.82 3.91-4.33 3.91-4.33-1.63-4.33-3.91zm.58 7.61h7.49v25.25h-7.49z" transform="translate(-2.96 -1.76)"/><path class="prefix__cls-1" d="M152 37.57c0-8.4 6.18-13.25 13.16-13.25a11 11 0 017.4 2.68L169 31.85a5.12 5.12 0 00-3.42-1.49c-3.6 0-5.91 2.84-5.91 7.21s2.4 7.19 5.66 7.19a7.58 7.58 0 004.55-1.86l2.93 4.89a12.6 12.6 0 01-8.32 3C157.46 50.8 152 46 152 37.57z" transform="translate(-2.96 -1.76)"/><path class="prefix__cls-2" d="M157.76 23.72h35.74v6.8h-35.74z"/><path class="prefix__cls-2" d="M175.6 16.88l-12.21 33.7-2.9-8 12.21-33.7 2.9 8z"/><path class="prefix__cls-2" d="M178.59 2.79l2.84 7.57-2.84 7.57-2.83-7.57z" transform="translate(-2.96 -1.76)"/><path class="prefix__cls-2" d="M175.67 16.88l12.21 33.7 2.9-8-12.21-33.7-2.9 8z"/></g></g></svg>